<?xml version="1.0" standalone="no"?><!DOCTYPE svg PUBLIC "-//W3C//DTD SVG 1.1//EN" "http://www.w3.org/Graphics/SVG/1.1/DTD/svg11.dtd"><svg t="1560919592917" class="icon" style="" viewBox="0 0 1024 1024" version="1.1" xmlns="http://www.w3.org/2000/svg" p-id="1847" xmlns:xlink="http://www.w3.org/1999/xlink" width="200" height="200"><defs><style type="text/css"></style></defs><path d="M512 5.12C231.424 5.12 3.584 232.96 3.584 514.048s227.84 507.904 508.416 507.904 508.416-227.328 508.416-508.416S792.576 5.12 512 5.12z m0 941.568c-239.616 0-433.664-194.048-433.664-433.664S272.384 80.384 512 80.384s433.664 194.048 433.664 433.664-194.048 432.64-433.664 432.64z" fill="#F4DCCB" p-id="1848"></path><path d="M665.088 493.056L382.464 329.728c-15.872-9.216-35.84 2.048-35.84 20.48v326.144c0 18.432 19.968 29.696 35.84 20.48l282.112-162.816c16.384-9.216 16.384-32.256 0.512-40.96z" fill="#FF9D4D" p-id="1849"></path></svg>